<svg width="279" height="86" viewBox="0 0 279 86" fill="none" xmlns="http://www.w3.org/2000/svg">
<path d="M39.32 68.08H0.68L50.84 0.999994H79.28V60.88H96.92V68.08H79.28V85H39.32V68.08ZM39.32 60.88V29.92L16.52 60.88H39.32ZM141.012 0.279996C149.412 0.279996 156.732 2.08 162.972 5.68C169.292 9.27999 174.132 14.32 177.492 20.8C180.852 27.2 182.532 34.56 182.532 42.88C182.532 51.28 180.852 58.72 177.492 65.2C174.132 71.6 169.292 76.6 162.972 80.2C156.732 83.8 149.412 85.6 141.012 85.6C132.612 85.6 125.252 83.8 118.932 80.2C112.692 76.6 107.852 71.6 104.412 65.2C101.052 58.72 99.3716 51.28 99.3716 42.88C99.3716 34.56 101.052 27.2 104.412 20.8C107.852 14.32 112.692 9.27999 118.932 5.68C125.252 2.08 132.612 0.279996 141.012 0.279996ZM133.452 11.92C132.092 14.32 131.212 17.96 130.812 22.84C130.492 25.88 130.332 32.24 130.332 41.92L150.612 18.4C150.132 15.76 149.412 13.6 148.452 11.92C146.852 8.88 144.372 7.36 141.012 7.36C137.652 7.36 135.132 8.88 133.452 11.92ZM148.452 73.96C149.812 71.56 150.692 67.92 151.092 63.04C151.492 59.2 151.692 52.92 151.692 44.2L131.412 67.84C131.892 70.56 132.572 72.6 133.452 73.96C135.132 77 137.652 78.52 141.012 78.52C144.372 78.52 146.852 77 148.452 73.96ZM221.078 68.08H182.438L232.598 0.999994H261.038V60.88H278.678V68.08H261.038V85H221.078V68.08ZM221.078 60.88V29.92L198.278 60.88H221.078Z" fill="#E39BA6"/>
</svg>
