<svg width="78" height="78" viewBox="8 8 50 50" fill="none" xmlns="http://www.w3.org/2000/svg">
<path d="M22.9997 26.8674C22.9997 23.1714 20.002 20.1743 16.3054 20.1743C12.6087 20.1743 9.6123 23.1714 9.6123 26.8674C9.6123 30.566 12.608 33.5618 16.3054 33.5618C20.0027 33.5618 22.9997 30.566 22.9997 26.8674ZM49.6934 21.4818C45.9974 21.4818 43.0004 24.4788 43.0004 28.1748C43.0004 31.8735 45.9974 34.8679 49.6934 34.8679C53.3901 34.8679 56.3872 31.8735 56.3872 28.1748C56.3872 24.4788 53.3908 21.4818 49.6934 21.4818ZM43.6142 35.6256C43.1489 35.052 42.4902 34.3881 41.7338 33.6918C39.7156 31.0762 36.5588 29.384 33.0001 29.384C29.8327 29.384 26.9855 30.7251 24.9731 32.8622C23.83 33.8568 22.8136 34.8276 22.1668 35.6262L21.7339 36.1549C19.7143 38.6174 17.2003 41.6811 17.2188 46.8799C17.2366 51.7078 21.1682 55.6381 25.9823 55.6381C27.3182 55.641 28.6368 55.3352 29.8351 54.7446C31.0334 54.1539 32.0791 53.2945 32.8905 52.2332C33.702 53.2948 34.748 54.1546 35.9467 54.7452C37.1454 55.3359 38.4644 55.6414 39.8007 55.6381C44.6128 55.6381 48.5437 51.7085 48.5622 46.8799C48.5807 41.6811 46.0661 38.6174 44.0471 36.1549L43.6142 35.6256Z" fill="white"/>
<path d="M33.4639 25.1143C37.5373 25.1143 40.8394 21.8122 40.8394 17.7388C40.8394 13.6654 37.5373 10.3633 33.4639 10.3633C29.3905 10.3633 26.0884 13.6654 26.0884 17.7388C26.0884 21.8122 29.3905 25.1143 33.4639 25.1143Z" fill="white"/>
</svg>
