<svg width="316" height="303" viewBox="0 0 316 303" fill="none" xmlns="http://www.w3.org/2000/svg">
<path d="M315.925 33.8153C315.645 30.0798 314.574 26.9284 313.054 24.9938L312.895 24.7991L312.774 24.6774L312.579 24.4584L312.384 24.2637C310.815 22.6819 308.917 21.8302 306.703 21.8302C305.717 21.8302 304.075 22.0249 301.8 22.3047C294.5 23.2295 277.941 25.2736 277.126 24.6166L277.029 24.2637C275.228 18.8369 267.612 10.7698 257.027 5.58638C247.014 0.694992 233.96 -2.05489 220.309 1.86309C220.09 1.92393 219.835 1.98476 219.616 2.0456L218.728 2.33762C205.43 5.74456 197.144 13.5562 191.937 24.8721C187.131 35.2389 185.173 48.3435 184.163 63.6747C183.092 79.7968 175.123 89.3727 158.504 109.401C148.175 121.86 134.682 138.068 118.051 161.296C110.532 171.821 104.497 182.407 99.6306 192.798C96.6012 192.201 93.6569 191.727 90.8222 191.374C85.8583 190.754 81.6487 190.437 78.084 190.145C75.529 189.768 73.5946 188.247 75.4925 185.315C81.965 175.361 90.6032 162.147 81.5879 130.451C81.2716 129.38 80.7119 128.334 79.8846 127.482C77.1715 124.61 72.6212 124.513 69.7743 127.226L58.8732 137.593L48.8603 134.405L44.8453 121.605C44.4925 120.522 43.9207 119.512 43.0691 118.697C40.2951 115.886 35.7449 115.886 32.9588 118.66C12.7747 138.798 11.9109 155.601 10.9984 174.193C10.6821 180.667 10.3414 187.371 8.9788 194.44C4.61106 217.169 8.60164 231.831 12.4827 246.116C15.9015 258.661 19.2107 270.853 15.2323 288.654H7.17818C3.2241 288.618 0 291.842 0 295.797C0 299.739 3.2241 302.964 7.17818 302.964H20.768C24.1746 302.964 27.0459 300.566 27.7759 297.379C34.6377 273.068 30.5255 257.931 26.2916 242.32C22.8485 229.617 19.2837 216.537 23.0067 197.129C24.5275 189.196 24.9046 181.895 25.2453 174.85C25.8779 162.306 26.4498 150.71 35.0149 138.262L36.2802 142.205C37.0102 144.541 38.8108 146.22 40.9521 146.914L58.5569 152.474C61.3065 153.326 64.1534 152.474 65.9784 150.515L70.407 146.317C72.7794 163.218 67.5965 171.188 63.4843 177.442C59.8465 183.039 56.7806 187.687 57.3889 194.915C58.0459 203.006 65.2606 203.517 76.1617 204.308C80.0427 204.588 84.593 204.904 89.0215 205.476C90.6032 205.695 92.2456 205.914 93.9124 206.231C80.1036 242.356 79.7872 274.175 80.6389 288.618H72.7794C68.8253 288.618 65.6012 291.842 65.6012 295.797C65.6012 299.739 68.8253 302.964 72.7794 302.964H88.4741C92.4281 302.964 95.6522 299.739 95.6522 295.797C95.6522 295.322 95.6157 294.872 95.5306 294.434C94.9952 290.613 90.5667 253.636 107.758 209.966C129.341 217.985 149.841 238.597 142.797 294.312C142.7 294.787 142.639 295.286 142.639 295.821C142.639 299.776 145.863 303 149.817 303H165.548C169.502 303 172.726 299.776 172.726 295.821C172.726 291.879 169.502 288.654 165.548 288.654H157.81C163.37 228.607 139.038 205.793 113.634 196.594C117.965 187.687 123.27 178.61 129.718 169.57C146.459 146.159 159.477 130.512 169.502 118.478C188.178 96.0041 197.084 85.2966 198.47 64.5629C198.762 60.1339 199.14 55.9604 199.651 52.0424C203.568 69.5517 211.647 85.2236 212.729 87.3164C214.372 90.699 218.35 92.2443 221.854 90.7842C239.021 83.7148 248.207 63.4557 249.788 44.4012C250.324 37.8306 249.983 31.3209 248.754 25.4683C248.049 22.2195 247.075 19.1533 245.81 16.3669C247.55 16.9631 249.229 17.6689 250.774 18.4232C257.855 21.9032 262.587 26.2592 263.439 28.7901C263.536 29.0456 263.634 29.2889 263.731 29.508C268.026 40.325 290.108 38.2078 301.678 36.8085C301.642 38.3295 301.423 40.033 301.009 41.8703C299.756 47.3336 296.592 53.6607 290.023 58.1749C285.436 61.3385 280.63 64.1492 276.141 66.8018C260.093 76.256 247.112 83.8973 253.706 97.8049C256.529 103.718 260.349 116.543 259.838 134.43C259.497 146.536 257.149 160.858 251.114 176.785C245.311 192.141 242.489 216.062 242.622 239.29C242.781 262.616 245.932 285.552 252.063 298.827C253.268 301.455 255.859 303 258.572 303H269.766C273.707 303 276.932 299.776 276.932 295.821C276.932 291.879 273.707 288.654 269.766 288.654H263.415C259.242 276.742 257.064 258.284 256.93 239.229C256.772 217.583 259.302 195.584 264.522 181.835C271.189 164.301 273.78 148.374 274.158 134.843C274.729 114.17 270.082 98.8757 266.663 91.7333C265.653 89.6161 273.586 84.9437 283.38 79.1641C288.149 76.3534 293.271 73.348 298.138 69.9654C308.224 63.0176 313.054 53.4052 314.976 45.0582C315.901 40.8604 316.144 36.9059 315.925 33.8153ZM235.481 43.2574C234.495 55.1452 230.079 67.4345 222.146 74.1024C215.224 59.0267 201.512 23.3511 222.937 16.0871C226.222 15.3935 228.777 16.4643 230.614 18.6788C232.512 20.9784 233.899 24.4219 234.751 28.4737C235.663 32.8906 235.919 37.9888 235.481 43.2574ZM224.92 295.797C224.92 299.739 221.696 302.964 217.754 302.964H206.561C203.848 302.964 201.257 301.418 200.052 298.79C193.92 285.527 190.769 262.579 190.611 239.254C190.453 216.062 193.263 192.104 199.079 176.749C200.466 173.05 204.602 171.188 208.301 172.575C212 173.962 213.861 178.111 212.474 181.798C207.255 195.548 204.736 217.583 204.894 239.193C205.016 258.247 207.194 276.706 211.367 288.618H217.718C221.696 288.618 224.92 291.842 224.92 295.797Z" fill="#E39BA6"/>
</svg>
