<svg width="195" height="133" viewBox="0 0 195 133" fill="none" xmlns="http://www.w3.org/2000/svg">
<path d="M9.56759 132.72C6.67036 132.72 4.53675 132.159 3.15925 131.043C1.78924 129.924 1.10798 128.127 1.10798 125.653C1.10798 123.168 1.78924 121.393 3.15925 120.323C4.53675 119.245 6.67036 118.706 9.56759 118.706H25.6633C28.5456 118.706 30.6792 119.245 32.0567 120.323C33.4342 121.393 34.1229 123.168 34.1229 125.653C34.1229 128.127 33.4342 129.924 32.0567 131.043C30.6792 132.159 28.5456 132.72 25.6633 132.72H9.56759ZM4.82123 125.653C4.82123 127.038 5.17309 128.053 5.88429 128.693C6.59176 129.329 7.81952 129.651 9.56759 129.651H25.6633C27.4001 129.651 28.6204 129.329 29.3316 128.693C30.0391 128.053 30.3947 127.038 30.3947 125.653C30.3947 124.268 30.0391 123.273 29.3316 122.674C28.6204 122.067 27.4001 121.76 25.6633 121.76H9.56759C7.81952 121.76 6.59176 122.067 5.88429 122.674C5.17309 123.273 4.82123 124.268 4.82123 125.653ZM29.7059 95.2435H33.2994V117.074H29.7059V106.653H24.3457V116.655H20.7522V95.528H24.3457V103.508H29.7059V95.2435ZM0 95.7825H17.1139V98.9268H3.75816V111.923H17.9374V115.023H0V95.7825Z" fill="#E39BA6"/>
<path d="M48.7801 132.72C45.8941 132.72 43.7642 132.159 42.3867 131.043C41.0092 129.924 40.3205 128.127 40.3205 125.653C40.3205 123.168 41.0092 121.393 42.3867 120.323C43.7642 119.245 45.8941 118.706 48.7801 118.706H61.9711C64.8646 118.706 66.9944 119.245 68.3644 120.323C69.7419 121.393 70.4307 123.168 70.4307 125.653C70.4307 128.127 69.7419 129.924 68.3644 131.043C66.9944 132.159 64.8646 132.72 61.9711 132.72H48.7801ZM44.0337 125.653C44.0337 127.038 44.3856 128.053 45.0968 128.693C45.8043 129.329 47.032 129.651 48.7801 129.651H61.9711C63.7154 129.651 64.9432 129.329 65.6544 128.693C66.3618 128.053 66.7174 127.038 66.7174 125.653C66.7174 124.268 66.3618 123.273 65.6544 122.674C64.9432 122.067 63.7154 121.76 61.9711 121.76H48.7801C47.032 121.76 45.8043 122.067 45.0968 122.674C44.3856 123.273 44.0337 124.268 44.0337 125.653ZM39.497 95.7825H43.2252V111.923H61.5668V115.023H39.497V95.7825ZM75.8359 103.209H69.6222V108.644H75.8359V111.803H69.6222V116.655H65.8939V95.2435H69.6222V100.065H75.8359V103.209Z" fill="#E39BA6"/>
<path d="M94.2955 109.542C94.3442 109.003 94.3891 108.446 94.4303 107.866C94.4677 107.278 94.4902 106.668 94.4902 106.039V98.9268H79.9067V95.7825H98.2933V105.021C98.2933 108.536 97.8628 111.695 97.0056 114.498C96.1447 117.306 94.9544 119.81 93.4271 122.015C91.9074 124.223 90.077 126.162 87.9321 127.839C85.7948 129.516 83.4478 130.961 80.8949 132.181L79.0084 129.411C80.6928 128.622 82.3099 127.689 83.8595 126.611C85.4167 125.533 86.8316 124.306 88.1118 122.928C89.3995 121.551 90.5149 120.02 91.4657 118.331C92.424 116.647 93.1614 114.779 93.6817 112.732H79.742V109.542H94.2955ZM112.517 95.2435V132.72H108.789V113.6H99.9253V110.411H108.789V95.2435H112.517Z" fill="#E39BA6"/>
<path d="M121.575 122.209V119.11H153.407V132.885H149.693V122.209H121.575ZM120.107 95.7825H123.821V111.923H137.67V115.023H120.107V95.7825ZM142.087 95.528H145.681V116.655H142.087V105.829H134.167V102.685H142.087V95.528ZM153.407 95.2435V117.074H149.813V95.2435H153.407Z" fill="#E39BA6"/>
<path d="M161.251 95.7826H192.335V98.9718H165.009V105.874H191.526V109.063H165.009V115.966H192.589V119.11H161.251V95.7826ZM195 128.753V131.897H158.391V128.753H195Z" fill="#E39BA6"/>
<path d="M145.19 10.4028C145.104 9.2536 144.775 8.28412 144.307 7.68895L144.258 7.62906L144.221 7.59163L144.161 7.52425L144.101 7.46436C143.618 6.97775 143.034 6.71572 142.353 6.71572C142.05 6.71572 141.544 6.77561 140.844 6.86171C138.599 7.14619 133.504 7.77504 133.253 7.57291L133.223 7.46436C132.669 5.7949 130.326 3.31316 127.069 1.71857C123.989 0.213804 119.972 -0.632156 115.773 0.57315C115.705 0.591867 115.627 0.610582 115.559 0.629298L115.286 0.719135C111.195 1.76723 108.646 4.17035 107.043 7.65152C105.565 10.8407 104.962 14.8721 104.652 19.5885C104.322 24.5483 101.87 27.4942 96.7571 33.6555C93.5792 37.4885 89.428 42.4744 84.3111 49.6202C81.9978 52.858 80.1411 56.1146 78.6439 59.3113C77.7118 59.1278 76.806 58.9819 75.9338 58.8733C74.4066 58.6824 73.1114 58.5851 72.0147 58.4953C71.2286 58.3792 70.6334 57.9113 71.2174 57.0092C73.2088 53.9473 75.8664 49.8822 73.0927 40.1312C72.9954 39.8018 72.8232 39.4799 72.5687 39.2178C71.7339 38.3344 70.334 38.3045 69.4581 39.1392L66.1042 42.3284L63.0235 41.3477L61.7883 37.4099C61.6797 37.0767 61.5038 36.766 61.2418 36.5152C60.3883 35.6506 58.9884 35.6506 58.1312 36.504C51.9212 42.699 51.6555 47.8683 51.3747 53.5879C51.2774 55.5793 51.1726 57.6418 50.7534 59.8166C49.4096 66.8089 50.6373 71.3194 51.8314 75.7139C52.8832 79.5731 53.9014 83.3238 52.6774 88.8001H50.1994C48.9828 88.7889 47.9909 89.7808 47.9909 90.9974C47.9909 92.2102 48.9828 93.2021 50.1994 93.2021H54.3805C55.4286 93.2021 56.312 92.4647 56.5366 91.484C58.6477 84.0051 57.3825 79.3486 56.0799 74.546C55.0206 70.6382 53.9238 66.6142 55.0693 60.6438C55.5372 58.2033 55.6532 55.9574 55.758 53.7901C55.9527 49.9308 56.1286 46.3636 58.7638 42.5343L59.1531 43.7471C59.3777 44.4658 59.9317 44.9823 60.5905 45.1957L66.0069 46.9063C66.8528 47.1684 67.7287 46.9063 68.2902 46.3037L69.6527 45.0123C70.3826 50.2116 68.788 52.6634 67.5228 54.5874C66.4036 56.3092 65.4603 57.7391 65.6475 59.9626C65.8496 62.4518 68.0694 62.609 71.4232 62.8523C72.6173 62.9384 74.0173 63.0357 75.3798 63.2117C75.8664 63.279 76.3717 63.3464 76.8846 63.4437C72.636 74.5573 72.5387 84.3457 72.8007 88.7889H70.3826C69.1661 88.7889 68.1742 89.7808 68.1742 90.9974C68.1742 92.2102 69.1661 93.2021 70.3826 93.2021H75.2114C76.4279 93.2021 77.4198 92.2102 77.4198 90.9974C77.4198 90.8514 77.4086 90.7129 77.3824 90.5781C77.2177 89.4028 75.8552 78.0272 81.1443 64.5929C87.7847 67.0597 94.092 73.4006 91.9247 90.5407C91.8948 90.6867 91.876 90.8401 91.876 91.0048C91.876 92.2214 92.868 93.2133 94.0845 93.2133H98.9245C100.141 93.2133 101.133 92.2214 101.133 91.0048C101.133 89.792 100.141 88.8001 98.9245 88.8001H96.5438C98.2544 70.3275 90.7681 63.309 82.9523 60.4791C84.2848 57.7391 85.9169 54.9467 87.9008 52.1655C93.0514 44.9636 97.0566 40.1499 100.141 36.4479C105.887 29.5342 108.627 26.2402 109.054 19.8618C109.143 18.4993 109.259 17.2154 109.417 16.0101C110.622 21.3965 113.107 26.2177 113.441 26.8616C113.946 27.9022 115.17 28.3776 116.248 27.9284C121.53 25.7536 124.356 19.5212 124.842 13.6593C125.007 11.638 124.902 9.63541 124.524 7.83494C124.307 6.8355 124.008 5.89222 123.618 5.03503C124.154 5.21845 124.67 5.43555 125.145 5.66763C127.324 6.73818 128.78 8.07824 129.042 8.85683C129.072 8.93543 129.102 9.0103 129.132 9.07767C130.453 12.4054 137.247 11.7541 140.807 11.3236C140.796 11.7915 140.728 12.3155 140.601 12.8808C140.216 14.5614 139.242 16.5079 137.221 17.8966C135.81 18.8699 134.331 19.7345 132.95 20.5505C128.013 23.459 124.019 25.8097 126.048 30.0882C126.916 31.9074 128.091 35.8527 127.934 41.3552C127.829 45.0797 127.107 49.4854 125.25 54.3852C123.465 59.1091 122.596 66.4682 122.638 73.614C122.686 80.7897 123.656 87.8456 125.542 91.9294C125.913 92.7379 126.71 93.2133 127.545 93.2133H130.989C132.201 93.2133 133.193 92.2214 133.193 91.0048C133.193 89.792 132.201 88.8001 130.989 88.8001H129.035C127.751 85.1355 127.081 79.4571 127.04 73.5953C126.991 66.9361 127.769 60.1685 129.375 55.9387C131.427 50.5447 132.224 45.6449 132.34 41.4825C132.516 35.1228 131.086 30.4176 130.034 28.2203C129.723 27.569 132.164 26.1316 135.177 24.3536C136.645 23.489 138.22 22.5644 139.718 21.5238C142.821 19.3864 144.307 16.4293 144.898 13.8615C145.183 12.5701 145.258 11.3535 145.19 10.4028ZM120.44 13.3075C120.137 16.9646 118.778 20.7452 116.338 22.7965C114.208 18.1587 109.989 7.18362 116.581 4.94894C117.592 4.73558 118.378 5.06498 118.943 5.74624C119.527 6.4537 119.954 7.51302 120.216 8.7595C120.496 10.1183 120.575 11.6867 120.44 13.3075ZM117.191 90.9974C117.191 92.2102 116.199 93.2021 114.986 93.2021H111.543C110.708 93.2021 109.911 92.7267 109.54 91.9182C107.654 87.8381 106.684 80.7785 106.635 73.6028C106.587 66.4682 107.451 59.0979 109.241 54.374C109.667 53.2361 110.94 52.6634 112.078 53.0901C113.216 53.5168 113.789 54.7932 113.362 55.9274C111.756 60.1572 110.981 66.9361 111.03 73.584C111.067 79.4459 111.737 85.1243 113.021 88.7889H114.975C116.199 88.7889 117.191 89.7808 117.191 90.9974Z" fill="#E39BA6"/>
</svg>
