<svg width="178" height="32" viewBox="0 0 178 32" fill="none" xmlns="http://www.w3.org/2000/svg">
<path d="M44.8411 30.671C42.7739 30.671 41.2516 30.2704 40.2688 29.4745C39.2913 28.676 38.8052 27.394 38.8052 25.6286C38.8052 23.8553 39.2913 22.5893 40.2688 21.8255C41.2516 21.0563 42.7739 20.6717 44.8411 20.6717H56.3253C58.3818 20.6717 59.9041 21.0563 60.8869 21.8255C61.8698 22.5893 62.3612 23.8553 62.3612 25.6286C62.3612 27.394 61.8698 28.676 60.8869 29.4745C59.9041 30.2704 58.3818 30.671 56.3253 30.671H44.8411ZM41.4546 25.6286C41.4546 26.6168 41.7057 27.3406 42.2131 27.7973C42.7179 28.2513 43.5939 28.481 44.8411 28.481H56.3253C57.5645 28.481 58.4352 28.2513 58.9426 27.7973C59.4474 27.3406 59.7011 26.6168 59.7011 25.6286C59.7011 24.6405 59.4474 23.93 58.9426 23.5027C58.4352 23.0701 57.5645 22.8511 56.3253 22.8511H44.8411C43.5939 22.8511 42.7179 23.0701 42.2131 23.5027C41.7057 23.93 41.4546 24.6405 41.4546 25.6286ZM59.2097 3.93149H61.7736V19.5073H59.2097V12.0719H55.3852V19.2082H52.8213V4.13447H55.3852V9.8285H59.2097V3.93149ZM38.0147 4.31608H50.2253V6.55951H40.6961V15.8323H50.8129V18.0437H38.0147V4.31608Z" fill="#E39BA6"/>
<path d="M72.819 30.671C70.7599 30.671 69.2402 30.2704 68.2574 29.4745C67.2745 28.676 66.7831 27.394 66.7831 25.6286C66.7831 23.8553 67.2745 22.5893 68.2574 21.8255C69.2402 21.0563 70.7599 20.6717 72.819 20.6717H82.2307C84.2952 20.6717 85.8148 21.0563 86.7923 21.8255C87.7752 22.5893 88.2666 23.8553 88.2666 25.6286C88.2666 27.394 87.7752 28.676 86.7923 29.4745C85.8148 30.2704 84.2952 30.671 82.2307 30.671H72.819ZM69.4325 25.6286C69.4325 26.6168 69.6835 27.3406 70.191 27.7973C70.6958 28.2513 71.5718 28.481 72.819 28.481H82.2307C83.4753 28.481 84.3513 28.2513 84.8587 27.7973C85.3635 27.3406 85.6172 26.6168 85.6172 25.6286C85.6172 24.6405 85.3635 23.93 84.8587 23.5027C84.3513 23.0701 83.4753 22.8511 82.2307 22.8511H72.819C71.5718 22.8511 70.6958 23.0701 70.191 23.5027C69.6835 23.93 69.4325 24.6405 69.4325 25.6286ZM66.1955 4.31608H68.8556V15.8323H81.9423V18.0437H66.1955V4.31608ZM92.1232 9.61484H87.6897V13.4928H92.1232V15.7469H87.6897V19.2082H85.0296V3.93149H87.6897V7.37141H92.1232V9.61484Z" fill="#E39BA6"/>
<path d="M105.294 14.1337C105.329 13.7492 105.361 13.3512 105.391 12.9373C105.417 12.5179 105.433 12.0826 105.433 11.6339V6.55951H95.0281V4.31608H108.147V10.9075C108.147 13.4153 107.84 15.6694 107.228 17.6698C106.614 19.6729 105.764 21.4596 104.675 23.0327C103.59 24.6084 102.284 25.9919 100.754 27.1884C99.2291 28.3848 97.5546 29.4158 95.7331 30.2864L94.3871 28.3101C95.5889 27.7465 96.7427 27.0815 97.8484 26.3123C98.9594 25.5432 99.9689 24.6672 100.882 23.6843C101.801 22.7015 102.597 21.6092 103.275 20.4047C103.959 19.2028 104.485 17.8701 104.856 16.4092H94.9105V14.1337H105.294ZM118.296 3.93149V30.671H115.636V17.0288H109.311V14.7534H115.636V3.93149H118.296Z" fill="#E39BA6"/>
<path d="M124.758 23.1715V20.9602H147.47V30.7885H144.821V23.1715H124.758ZM123.711 4.31608H126.361V15.8323H136.243V18.0437H123.711V4.31608ZM139.394 4.13447H141.958V19.2082H139.394V11.4844H133.743V9.24094H139.394V4.13447ZM147.47 3.93149V19.5073H144.906V3.93149H147.47Z" fill="#E39BA6"/>
<path d="M153.067 4.31605H175.245V6.59153H155.749V11.5164H174.668V13.7919H155.749V18.7167H175.427V20.9601H153.067V4.31605ZM177.147 27.84V30.0834H151.027V27.84H177.147Z" fill="#E39BA6"/>
<path d="M33.3683 3.56991C33.3389 3.17731 33.2241 2.84346 33.0638 2.64049L33.0478 2.61912L33.0345 2.60577L33.0158 2.58173L33.0051 2.57372L32.9944 2.56304C32.8288 2.39478 32.6285 2.30664 32.3935 2.30664C32.292 2.30664 32.1184 2.32534 31.878 2.35472C31.1062 2.45354 29.3568 2.66987 29.2714 2.60043L29.2607 2.56304C29.0711 1.98883 28.2645 1.13686 27.1481 0.589355C26.0905 0.0739006 24.7124 -0.217211 23.2702 0.196755C23.2462 0.202096 23.2195 0.210109 23.1954 0.21545L23.102 0.247499C21.6971 0.60805 20.8238 1.43064 20.271 2.62713C19.7662 3.72214 19.5579 5.10559 19.451 6.72406C19.3389 8.428 18.4976 9.43754 16.7402 11.5528C15.6506 12.8694 14.2244 14.5814 12.4697 17.0331C11.6738 18.1468 11.0382 19.2632 10.5227 20.3609C10.2023 20.2995 9.89245 20.2487 9.59332 20.2113C9.06718 20.1446 8.62384 20.1125 8.24726 20.0805C7.97752 20.0404 7.77187 19.8802 7.97218 19.5703C8.65856 18.5207 9.56928 17.1239 8.6185 13.7775C8.58378 13.6627 8.52502 13.5532 8.43689 13.4624C8.15112 13.1606 7.67038 13.1499 7.36859 13.4356L6.2175 14.5307L5.15988 14.1941L4.73523 12.8427C4.70051 12.7279 4.63909 12.6211 4.54828 12.5356C4.2545 12.2392 3.77377 12.2392 3.47998 12.5329C1.34873 14.6588 1.25792 16.4322 1.16177 18.3952C1.12705 19.0789 1.09233 19.7867 0.948115 20.5345C0.486075 22.9355 0.908054 24.4845 1.31935 25.9935C1.6799 27.3182 2.02977 28.6055 1.60779 30.4857H0.758492C0.339184 30.4803 0 30.8222 0 31.2388C0 31.6555 0.339184 31.9973 0.758492 31.9973H2.19268C2.55323 31.9973 2.8577 31.7436 2.93248 31.4044C3.65892 28.8378 3.22359 27.2407 2.77758 25.5929C2.41435 24.2495 2.03511 22.8687 2.43038 20.8203C2.59062 19.9816 2.63069 19.2098 2.66808 18.4673C2.73217 17.14 2.7936 15.9168 3.69898 14.6001L3.83252 15.0194C3.9073 15.2651 4.0996 15.4414 4.32661 15.5162L6.18545 16.1037C6.47389 16.1919 6.77568 16.1037 6.96798 15.8954L7.43536 15.4521C7.68641 17.2388 7.13891 18.0801 6.70624 18.7397C6.32166 19.33 5.9985 19.8214 6.05992 20.5852C6.13203 21.4399 6.8932 21.4933 8.04429 21.5761C8.45291 21.6055 8.93365 21.6402 9.40103 21.6989C9.56928 21.723 9.74288 21.747 9.91915 21.7791C8.46093 25.5956 8.42621 28.9554 8.51701 30.4803H7.68641C7.26977 30.4803 6.92792 30.8222 6.92792 31.2388C6.92792 31.6555 7.26977 31.9973 7.68641 31.9973H9.34494C9.76158 31.9973 10.1034 31.6555 10.1034 31.2388C10.1034 31.1881 10.1008 31.1427 10.0901 31.0946C10.034 30.6913 9.56661 26.7867 11.3801 22.1743C13.6609 23.021 15.8268 25.1976 15.0817 31.0813C15.0737 31.132 15.0657 31.1854 15.0657 31.2415C15.0657 31.6581 15.4049 32 15.8242 32H17.4854C17.902 32 18.2439 31.6581 18.2439 31.2415C18.2439 30.8249 17.902 30.4857 17.4854 30.4857H16.6681C17.2557 24.1427 14.6864 21.7337 12.0023 20.7615C12.459 19.8214 13.0199 18.8626 13.7009 17.9091C15.469 15.436 16.8444 13.7828 17.902 12.5116C19.8757 10.1399 20.8158 9.00755 20.9627 6.81753C20.9921 6.35015 21.0321 5.90948 21.0855 5.49552C21.4995 7.34634 22.3541 8.99954 22.469 9.22121C22.6426 9.57909 23.0619 9.742 23.4331 9.5871C25.2439 8.83929 26.216 6.70002 26.3843 4.68895C26.4404 3.99456 26.403 3.30817 26.2721 2.68856C26.2 2.34671 26.0959 2.02087 25.9623 1.72709C26.1466 1.79119 26.3229 1.86597 26.4858 1.94609C27.2336 2.31199 27.7357 2.77403 27.8238 3.0411C27.8345 3.06781 27.8452 3.09451 27.8559 3.11588C28.3099 4.25896 30.6415 4.03462 31.8647 3.88773C31.8593 4.04797 31.838 4.22691 31.7926 4.42188C31.659 4.99876 31.3252 5.66644 30.6308 6.14451C30.1474 6.47835 29.6399 6.7748 29.1672 7.05523C27.4713 8.05409 26.0985 8.86065 26.7983 10.3296C27.0947 10.9545 27.498 12.3086 27.4446 14.1968C27.4072 15.4761 27.1615 16.9877 26.5232 18.6703C25.9089 20.2915 25.6125 22.818 25.6258 25.2724C25.6418 27.7348 25.9757 30.1572 26.6247 31.5593C26.7502 31.8371 27.0253 32 27.3111 32H28.4915C28.9108 32 29.25 31.6581 29.25 31.2415C29.25 30.8249 28.9108 30.4857 28.4915 30.4857H27.8212C27.3805 29.2251 27.1508 27.2781 27.1375 25.2644C27.1214 22.9782 27.3885 20.6547 27.9387 19.2045C28.6438 17.351 28.9162 15.6684 28.9562 14.2395C29.0177 12.0575 28.5262 10.4417 28.1657 9.68859C28.0589 9.46424 28.8975 8.97016 29.9311 8.36123C30.4358 8.0621 30.9753 7.74695 31.4908 7.38907C32.5537 6.65462 33.0638 5.63974 33.2695 4.75839C33.3656 4.31505 33.3923 3.89841 33.3683 3.56991ZM24.8727 4.56877C24.7685 5.82402 24.3011 7.122 23.4625 7.82708C22.7307 6.23531 21.2832 2.46689 23.5453 1.69771C23.8925 1.6256 24.1649 1.73778 24.3572 1.9728C24.5575 2.21584 24.7044 2.57906 24.7952 3.00638C24.8914 3.47376 24.9181 4.01058 24.8727 4.56877ZM23.7563 31.2388C23.7563 31.6555 23.4171 31.9973 22.9978 31.9973H21.8173C21.5316 31.9973 21.2565 31.8317 21.1309 31.5567C20.482 30.1545 20.1481 27.7321 20.1321 25.267C20.1161 22.818 20.4125 20.2888 21.0268 18.665C21.1737 18.275 21.6117 18.0801 22.0016 18.227C22.3915 18.3739 22.5892 18.8092 22.4423 19.1991C21.8921 20.652 21.625 22.9782 21.6411 25.2617C21.6544 27.2728 21.8841 29.2224 22.3248 30.4803H22.9951C23.4171 30.4803 23.7563 30.8222 23.7563 31.2388Z" fill="#E39BA6"/>
</svg>
