<svg width="424" height="331" viewBox="0 0 424 331" fill="none" xmlns="http://www.w3.org/2000/svg">
<mask id="path-1-inside-1_239_186" fill="white">
<path d="M127.708 118.407L143.655 121.089L151.628 127.794L152.957 126.453H163.587V118.407H186.178L187.507 119.748V172.047H163.587V166.683H150.299L142.326 172.047L127.708 174.729V178.752H163.587V173.388H186.178L187.507 174.729V213.618H102.46V174.729L103.789 173.388L114.42 172.047L106.446 166.683L101.131 158.637L99.8021 153.273V139.863L103.789 129.135L113.091 121.089L127.708 118.407ZM127.708 138.522L125.05 139.863V151.932L130.366 153.273L131.695 151.932V139.863L127.708 138.522ZM156.943 143.886V149.25H163.587V143.886H156.943ZM127.708 194.844V197.526H163.587V194.844H127.708Z"/>
<path d="M25.5386 237.671H44.3565V258.975L34.9475 260.307L32.2593 262.97V269.628L34.9475 272.291L55.1096 273.622L59.142 261.639L61.8302 257.644H81.9923V273.622H92.7454V293.595H81.9923V330.878H22.8503L9.40895 325.552L2.68827 317.563L0 308.242L1.34414 294.927L6.72068 286.938L13.4414 284.274L5.37654 274.954L2.68827 265.633L4.03241 254.981L8.06481 248.323L16.1296 241.666L25.5386 237.671ZM38.9799 293.595L29.571 297.59L28.2269 304.247L30.9151 309.573L37.6358 312.236H53.7654V293.595H38.9799Z"/>
<path d="M147.894 235.667L159.814 238.349L166.436 243.713L169.084 249.077V254.441H173.057V237.008L174.382 235.667H194.247L195.572 237.008V329.537L194.247 330.878H174.382L173.057 329.537V312.104H169.084L167.76 318.809L162.463 325.514L151.868 329.537L139.948 328.196L132.002 322.832L128.029 314.786V250.418L133.326 241.031L139.948 237.008L147.894 235.667ZM147.894 255.782L146.57 257.123V308.081H150.543V257.123L147.894 255.782ZM169.084 274.556V291.989H173.057V274.556H169.084Z"/>
<path d="M231.186 237.671H253.947L255.286 238.993V249.57H260.642V237.671H284.742L286.08 238.993V249.57H291.436V237.671H315.536V299.809H231.186L229.847 298.487V238.993L231.186 237.671ZM255.286 269.401V279.978H260.642V269.401H255.286ZM286.08 269.401V279.978H291.436V269.401H286.08Z"/>
<path d="M165.329 1.14667H189.433V22.5274H198.807V2.48296H252.372V22.5274H222.911V73.3067H255.05V93.3511H198.807V42.5719H189.433V63.9526H165.329V1.14667Z"/>
<path d="M326.625 237.671H380.39V257.568H350.819V307.974H383.079V327.871H326.625V237.671Z"/>
<path d="M195.572 120.411H247.993L249.337 121.738V140.308H219.766V190.714H252.025V209.285L250.681 210.611H195.572V120.411Z"/>
<path d="M4.03241 2.14889H60.4861V60.2778H4.03241V2.14889ZM28.2269 22.4264V40.0003H36.2917V22.4264H28.2269Z"/>
<path d="M263.437 1.14667H286.059L287.39 2.48767V37.3537H295.374V57.4687H287.39V96.3578H262.107V2.48767L263.437 1.14667Z"/>
<path d="M259.082 118.407H283.035V154.614H292.35V174.729H283.035V213.618H259.082V118.407Z"/>
<path d="M390.498 235.667H413.806V271.874H423.403V291.989H413.806V330.878H389.127V237.008L390.498 235.667Z"/>
<path d="M68.8693 118.407H91.4189L92.7454 119.748V213.618H67.5428V119.748L68.8693 118.407Z"/>
<path d="M198.893 235.667H218.462L219.766 237.008V330.878H197.588V237.008L198.893 235.667Z"/>
<path d="M103.834 60.2778H129.273V77.6496H189.523V96.3578H103.834V60.2778Z"/>
<path d="M165.329 1.14667H189.433V22.5274H198.807V2.48296H252.372V3.81926H200.146V92.0148H253.711V74.643H222.911V73.3067H255.05V93.3511H198.807V42.5719H189.433V63.9526H165.329V1.14667Z"/>
<path d="M7.05671 64.2867H31.1566V77.6496H92.7454V96.3578H7.05671V64.2867Z"/>
<path d="M4.03241 166.513H65.5266V186.701H42.8005V212.272L41.4637 213.618H18.7375V186.701H4.03241V166.513Z"/>
<path d="M227.831 307.827H318.56V327.871H227.831V307.827Z"/>
<path d="M7.05671 120.411H58.1339L59.478 124.42L58.1339 164.509H33.9394V140.456H7.05671V120.411Z"/>
<path d="M297.054 76.3133H318.56L315.872 93.4566L313.184 101.369H294.366V90.8192L297.054 76.3133Z"/>
<path d="M100.352 21.2245H91.3519V0H66.3519V65H91.3519V41.1224H100.352V21.2245Z"/>
<path d="M101.352 54.0612H154.352V34.1633H125.019V1H101.352V54.0612Z"/>
</mask>
<path d="M127.708 118.407L143.655 121.089L151.628 127.794L152.957 126.453H163.587V118.407H186.178L187.507 119.748V172.047H163.587V166.683H150.299L142.326 172.047L127.708 174.729V178.752H163.587V173.388H186.178L187.507 174.729V213.618H102.46V174.729L103.789 173.388L114.42 172.047L106.446 166.683L101.131 158.637L99.8021 153.273V139.863L103.789 129.135L113.091 121.089L127.708 118.407ZM127.708 138.522L125.05 139.863V151.932L130.366 153.273L131.695 151.932V139.863L127.708 138.522ZM156.943 143.886V149.25H163.587V143.886H156.943ZM127.708 194.844V197.526H163.587V194.844H127.708Z" fill="white"/>
<path d="M25.5386 237.671H44.3565V258.975L34.9475 260.307L32.2593 262.97V269.628L34.9475 272.291L55.1096 273.622L59.142 261.639L61.8302 257.644H81.9923V273.622H92.7454V293.595H81.9923V330.878H22.8503L9.40895 325.552L2.68827 317.563L0 308.242L1.34414 294.927L6.72068 286.938L13.4414 284.274L5.37654 274.954L2.68827 265.633L4.03241 254.981L8.06481 248.323L16.1296 241.666L25.5386 237.671ZM38.9799 293.595L29.571 297.59L28.2269 304.247L30.9151 309.573L37.6358 312.236H53.7654V293.595H38.9799Z" fill="white"/>
<path d="M147.894 235.667L159.814 238.349L166.436 243.713L169.084 249.077V254.441H173.057V237.008L174.382 235.667H194.247L195.572 237.008V329.537L194.247 330.878H174.382L173.057 329.537V312.104H169.084L167.76 318.809L162.463 325.514L151.868 329.537L139.948 328.196L132.002 322.832L128.029 314.786V250.418L133.326 241.031L139.948 237.008L147.894 235.667ZM147.894 255.782L146.57 257.123V308.081H150.543V257.123L147.894 255.782ZM169.084 274.556V291.989H173.057V274.556H169.084Z" fill="white"/>
<path d="M231.186 237.671H253.947L255.286 238.993V249.57H260.642V237.671H284.742L286.08 238.993V249.57H291.436V237.671H315.536V299.809H231.186L229.847 298.487V238.993L231.186 237.671ZM255.286 269.401V279.978H260.642V269.401H255.286ZM286.08 269.401V279.978H291.436V269.401H286.08Z" fill="white"/>
<path d="M165.329 1.14667H189.433V22.5274H198.807V2.48296H252.372V22.5274H222.911V73.3067H255.05V93.3511H198.807V42.5719H189.433V63.9526H165.329V1.14667Z" fill="white"/>
<path d="M326.625 237.671H380.39V257.568H350.819V307.974H383.079V327.871H326.625V237.671Z" fill="white"/>
<path d="M195.572 120.411H247.993L249.337 121.738V140.308H219.766V190.714H252.025V209.285L250.681 210.611H195.572V120.411Z" fill="white"/>
<path d="M4.03241 2.14889H60.4861V60.2778H4.03241V2.14889ZM28.2269 22.4264V40.0003H36.2917V22.4264H28.2269Z" fill="white"/>
<path d="M263.437 1.14667H286.059L287.39 2.48767V37.3537H295.374V57.4687H287.39V96.3578H262.107V2.48767L263.437 1.14667Z" fill="white"/>
<path d="M259.082 118.407H283.035V154.614H292.35V174.729H283.035V213.618H259.082V118.407Z" fill="white"/>
<path d="M390.498 235.667H413.806V271.874H423.403V291.989H413.806V330.878H389.127V237.008L390.498 235.667Z" fill="white"/>
<path d="M68.8693 118.407H91.4189L92.7454 119.748V213.618H67.5428V119.748L68.8693 118.407Z" fill="white"/>
<path d="M198.893 235.667H218.462L219.766 237.008V330.878H197.588V237.008L198.893 235.667Z" fill="white"/>
<path d="M103.834 60.2778H129.273V77.6496H189.523V96.3578H103.834V60.2778Z" fill="white"/>
<path d="M165.329 1.14667H189.433V22.5274H198.807V2.48296H252.372V3.81926H200.146V92.0148H253.711V74.643H222.911V73.3067H255.05V93.3511H198.807V42.5719H189.433V63.9526H165.329V1.14667Z" fill="white"/>
<path d="M7.05671 64.2867H31.1566V77.6496H92.7454V96.3578H7.05671V64.2867Z" fill="white"/>
<path d="M4.03241 166.513H65.5266V186.701H42.8005V212.272L41.4637 213.618H18.7375V186.701H4.03241V166.513Z" fill="white"/>
<path d="M227.831 307.827H318.56V327.871H227.831V307.827Z" fill="white"/>
<path d="M7.05671 120.411H58.1339L59.478 124.42L58.1339 164.509H33.9394V140.456H7.05671V120.411Z" fill="white"/>
<path d="M297.054 76.3133H318.56L315.872 93.4566L313.184 101.369H294.366V90.8192L297.054 76.3133Z" fill="white"/>
<path d="M100.352 21.2245H91.3519V0H66.3519V65H91.3519V41.1224H100.352V21.2245Z" fill="white"/>
<path d="M101.352 54.0612H154.352V34.1633H125.019V1H101.352V54.0612Z" fill="white"/>
<path d="M165.329 1.14667V0.646667H164.829V1.14667H165.329ZM189.433 1.14667H189.933V0.646667H189.433V1.14667ZM189.433 22.5274H188.933V23.0274H189.433V22.5274ZM198.807 22.5274V23.0274H199.307V22.5274H198.807ZM198.807 2.48296V1.98296H198.307V2.48296H198.807ZM255.05 73.3067H255.55V72.8067H255.05V73.3067ZM255.05 93.3511V93.8511H255.55V93.3511H255.05ZM198.807 93.3511H198.307V93.8511H198.807V93.3511ZM198.807 42.5719H199.307V42.0719H198.807V42.5719ZM189.433 42.5719V42.0719H188.933V42.5719H189.433ZM189.433 63.9526V64.4526H189.933V63.9526H189.433ZM165.329 63.9526H164.829V64.4526H165.329V63.9526ZM165.329 1.64667H189.433V0.646667H165.329V1.64667ZM188.933 1.14667V22.5274H189.933V1.14667H188.933ZM189.433 23.0274H198.807V22.0274H189.433V23.0274ZM199.307 22.5274V2.48296H198.307V22.5274H199.307ZM198.807 2.98296H252.372V1.98296H198.807V2.98296ZM222.911 73.8067H255.05V72.8067H222.911V73.8067ZM254.55 73.3067V93.3511H255.55V73.3067H254.55ZM255.05 92.8511H198.807V93.8511H255.05V92.8511ZM199.307 93.3511V42.5719H198.307V93.3511H199.307ZM198.807 42.0719H189.433V43.0719H198.807V42.0719ZM188.933 42.5719V63.9526H189.933V42.5719H188.933ZM189.433 63.4526H165.329V64.4526H189.433V63.4526ZM165.829 63.9526V1.14667H164.829V63.9526H165.829ZM127.708 118.407L127.874 117.421L127.701 117.391L127.528 117.423L127.708 118.407ZM143.655 121.089L144.298 120.323L144.089 120.148L143.82 120.103L143.655 121.089ZM151.628 127.794L150.984 128.559L151.689 129.152L152.338 128.498L151.628 127.794ZM152.957 126.453V125.453H152.54L152.246 125.749L152.957 126.453ZM163.587 126.453V127.453H164.587V126.453H163.587ZM163.587 118.407V117.407H162.587V118.407H163.587ZM186.178 118.407L186.888 117.703L186.595 117.407H186.178V118.407ZM187.507 119.748H188.507V119.336L188.217 119.044L187.507 119.748ZM187.507 172.047V173.047H188.507V172.047H187.507ZM163.587 172.047H162.587V173.047H163.587V172.047ZM163.587 166.683H164.587V165.683H163.587V166.683ZM150.299 166.683V165.683H149.994L149.741 165.853L150.299 166.683ZM142.326 172.047L142.506 173.03L142.711 172.993L142.884 172.876L142.326 172.047ZM127.708 174.729L127.528 173.745L126.708 173.896V174.729H127.708ZM127.708 178.752H126.708V179.752H127.708V178.752ZM163.587 178.752V179.752H164.587V178.752H163.587ZM163.587 173.388V172.388H162.587V173.388H163.587ZM186.178 173.388L186.888 172.684L186.595 172.388H186.178V173.388ZM187.507 174.729H188.507V174.317L188.217 174.025L187.507 174.729ZM187.507 213.618V214.618H188.507V213.618H187.507ZM102.46 213.618H101.46V214.618H102.46V213.618ZM102.46 174.729L101.749 174.025L101.46 174.317V174.729H102.46ZM103.789 173.388L103.664 172.396L103.321 172.439L103.078 172.684L103.789 173.388ZM114.42 172.047L114.545 173.039L117.19 172.705L114.978 171.217L114.42 172.047ZM106.446 166.683L105.612 167.234L105.722 167.401L105.888 167.512L106.446 166.683ZM101.131 158.637L100.16 158.877L100.202 159.044L100.297 159.188L101.131 158.637ZM99.8021 153.273H98.8021V153.395L98.8314 153.513L99.8021 153.273ZM99.8021 139.863L98.8647 139.514L98.8021 139.683V139.863H99.8021ZM103.789 129.135L103.134 128.378L102.941 128.546L102.851 128.786L103.789 129.135ZM113.091 121.089L112.91 120.105L112.642 120.154L112.437 120.332L113.091 121.089ZM127.708 138.522L128.027 137.574L127.631 137.441L127.258 137.629L127.708 138.522ZM125.05 139.863L124.6 138.97L124.05 139.247V139.863H125.05ZM125.05 151.932H124.05V152.711L124.806 152.901L125.05 151.932ZM130.366 153.273L130.121 154.242L130.675 154.382L131.076 153.977L130.366 153.273ZM131.695 151.932L132.405 152.636L132.695 152.343V151.932H131.695ZM131.695 139.863H132.695V139.144L132.014 138.915L131.695 139.863ZM156.943 143.886V142.886H155.943V143.886H156.943ZM156.943 149.25H155.943V150.25H156.943V149.25ZM163.587 149.25V150.25H164.587V149.25H163.587ZM163.587 143.886H164.587V142.886H163.587V143.886ZM127.708 194.844V193.844H126.708V194.844H127.708ZM127.708 197.526H126.708V198.526H127.708V197.526ZM163.587 197.526V198.526H164.587V197.526H163.587ZM163.587 194.844H164.587V193.844H163.587V194.844ZM25.5386 237.671V236.671H25.3351L25.1478 236.751L25.5386 237.671ZM44.3565 237.671H45.3565V236.671H44.3565V237.671ZM44.3565 258.975L44.4966 259.966L45.3565 259.844V258.975H44.3565ZM34.9475 260.307L34.8074 259.317L34.4792 259.363L34.2438 259.597L34.9475 260.307ZM32.2593 262.97L31.5555 262.26L31.2593 262.553V262.97H32.2593ZM32.2593 269.628H31.2593V270.045L31.5555 270.338L32.2593 269.628ZM34.9475 272.291L34.2438 273.001L34.509 273.264L34.8816 273.289L34.9475 272.291ZM55.1096 273.622L55.0437 274.62L55.8118 274.671L56.0573 273.941L55.1096 273.622ZM59.142 261.639L58.3124 261.08L58.2371 261.192L58.1942 261.32L59.142 261.639ZM61.8302 257.644V256.644H61.2979L61.0006 257.086L61.8302 257.644ZM81.9923 257.644H82.9923V256.644H81.9923V257.644ZM81.9923 273.622H80.9923V274.622H81.9923V273.622ZM92.7454 273.622H93.7454V272.622H92.7454V273.622ZM92.7454 293.595V294.595H93.7454V293.595H92.7454ZM81.9923 293.595V292.595H80.9923V293.595H81.9923ZM81.9923 330.878V331.878H82.9923V330.878H81.9923ZM22.8503 330.878L22.4819 331.807L22.6594 331.878H22.8503V330.878ZM9.40895 325.552L8.64371 326.195L8.80608 326.388L9.04057 326.481L9.40895 325.552ZM2.68827 317.563L1.72744 317.84L1.7863 318.044L1.92303 318.206L2.68827 317.563ZM0 308.242L-0.994943 308.141L-1.01433 308.334L-0.960834 308.519L0 308.242ZM1.34414 294.927L0.514511 294.368L0.374397 294.577L0.349192 294.826L1.34414 294.927ZM6.72068 286.938L6.3523 286.008L6.06412 286.122L5.89105 286.379L6.72068 286.938ZM13.4414 284.274L13.8097 285.204L15.1192 284.685L14.1976 283.62L13.4414 284.274ZM5.37654 274.954L4.41571 275.231L4.47659 275.442L4.62033 275.608L5.37654 274.954ZM2.68827 265.633L1.69614 265.508L1.67035 265.712L1.72744 265.91L2.68827 265.633ZM4.03241 254.981L3.17707 254.463L3.0669 254.645L3.04027 254.856L4.03241 254.981ZM8.06481 248.323L7.4282 247.552L7.29736 247.66L7.20947 247.805L8.06481 248.323ZM16.1296 241.666L15.7388 240.745L15.6051 240.802L15.493 240.895L16.1296 241.666ZM38.9799 293.595V292.595H38.7765L38.5891 292.675L38.9799 293.595ZM29.571 297.59L29.1802 296.669L28.6951 296.875L28.5908 297.392L29.571 297.59ZM28.2269 304.247L27.2466 304.049L27.1781 304.389L27.3341 304.698L28.2269 304.247ZM30.9151 309.573L30.0224 310.024L30.1936 310.363L30.5467 310.503L30.9151 309.573ZM37.6358 312.236L37.2674 313.166L37.4449 313.236H37.6358V312.236ZM53.7654 312.236V313.236H54.7654V312.236H53.7654ZM53.7654 293.595H54.7654V292.595H53.7654V293.595ZM147.894 235.667L148.114 234.691L147.922 234.648L147.728 234.681L147.894 235.667ZM159.814 238.349L160.443 237.572L160.261 237.424L160.033 237.373L159.814 238.349ZM166.436 243.713L167.332 243.27L167.235 243.074L167.065 242.936L166.436 243.713ZM169.084 249.077H170.084V248.843L169.981 248.634L169.084 249.077ZM169.084 254.441H168.084V255.441H169.084V254.441ZM173.057 254.441V255.441H174.057V254.441H173.057ZM173.057 237.008L172.346 236.305L172.057 236.597V237.008H173.057ZM174.382 235.667V234.667H173.964L173.67 234.964L174.382 235.667ZM194.247 235.667L194.959 234.964L194.665 234.667H194.247V235.667ZM195.572 237.008H196.572V236.597L196.283 236.305L195.572 237.008ZM195.572 329.537L196.283 330.24L196.572 329.947V329.537H195.572ZM194.247 330.878V331.878H194.665L194.959 331.58L194.247 330.878ZM174.382 330.878L173.67 331.58L173.964 331.878H174.382V330.878ZM173.057 329.537H172.057V329.947L172.346 330.24L173.057 329.537ZM173.057 312.104H174.057V311.104H173.057V312.104ZM169.084 312.104V311.104H168.263L168.103 311.91L169.084 312.104ZM167.76 318.809L168.545 319.429L168.694 319.239L168.741 319.003L167.76 318.809ZM162.463 325.514L162.818 326.449L163.076 326.351L163.247 326.134L162.463 325.514ZM151.868 329.537L151.756 330.531L151.996 330.558L152.223 330.472L151.868 329.537ZM139.948 328.196L139.389 329.025L139.592 329.162L139.836 329.19L139.948 328.196ZM132.002 322.832L131.105 323.275L131.223 323.512L131.443 323.661L132.002 322.832ZM128.029 314.786H127.029V315.019L127.132 315.229L128.029 314.786ZM128.029 250.418L127.158 249.926L127.029 250.155V250.418H128.029ZM133.326 241.031L132.807 240.176L132.584 240.312L132.456 240.539L133.326 241.031ZM139.948 237.008L139.782 236.022L139.593 236.054L139.429 236.153L139.948 237.008ZM147.894 255.782L148.346 254.89L147.695 254.56L147.183 255.079L147.894 255.782ZM146.57 257.123L145.859 256.42L145.57 256.712V257.123H146.57ZM146.57 308.081H145.57V309.081H146.57V308.081ZM150.543 308.081V309.081H151.543V308.081H150.543ZM150.543 257.123H151.543V256.508L150.995 256.231L150.543 257.123ZM169.084 274.556V273.556H168.084V274.556H169.084ZM169.084 291.989H168.084V292.989H169.084V291.989ZM173.057 291.989V292.989H174.057V291.989H173.057ZM173.057 274.556H174.057V273.556H173.057V274.556ZM231.186 237.671V236.671H230.776L230.483 236.96L231.186 237.671ZM253.947 237.671L254.65 236.96L254.358 236.671H253.947V237.671ZM255.286 238.993H256.286V238.575L255.989 238.282L255.286 238.993ZM255.286 249.57H254.286V250.57H255.286V249.57ZM260.642 249.57V250.57H261.642V249.57H260.642ZM260.642 237.671V236.671H259.642V237.671H260.642ZM284.742 237.671L285.444 236.96L285.152 236.671H284.742V237.671ZM286.08 238.993H287.08V238.575L286.783 238.282L286.08 238.993ZM286.08 249.57H285.08V250.57H286.08V249.57ZM291.436 249.57V250.57H292.436V249.57H291.436ZM291.436 237.671V236.671H290.436V237.671H291.436ZM315.536 237.671H316.536V236.671H315.536V237.671ZM315.536 299.809V300.809H316.536V299.809H315.536ZM231.186 299.809L230.483 300.52L230.776 300.809H231.186V299.809ZM229.847 298.487H228.847V298.905L229.145 299.198L229.847 298.487ZM229.847 238.993L229.145 238.282L228.847 238.575V238.993H229.847ZM255.286 269.401V268.401H254.286V269.401H255.286ZM255.286 279.978H254.286V280.978H255.286V279.978ZM260.642 279.978V280.978H261.642V279.978H260.642ZM260.642 269.401H261.642V268.401H260.642V269.401ZM286.08 269.401V268.401H285.08V269.401H286.08ZM286.08 279.978H285.08V280.978H286.08V279.978ZM291.436 279.978V280.978H292.436V279.978H291.436ZM291.436 269.401H292.436V268.401H291.436V269.401ZM252.372 22.5274V23.5274H253.372V22.5274H252.372ZM222.911 22.5274V21.5274H221.911V22.5274H222.911ZM326.625 237.671V236.671H325.625V237.671H326.625ZM380.39 237.671H381.39V236.671H380.39V237.671ZM380.39 257.568V258.568H381.39V257.568H380.39ZM350.819 257.568V256.568H349.819V257.568H350.819ZM350.819 307.974H349.819V308.974H350.819V307.974ZM383.079 307.974H384.079V306.974H383.079V307.974ZM383.079 327.871V328.871H384.079V327.871H383.079ZM326.625 327.871H325.625V328.871H326.625V327.871ZM195.572 120.411V119.411H194.572V120.411H195.572ZM247.993 120.411L248.695 119.699L248.403 119.411H247.993V120.411ZM249.337 121.738H250.337V121.319L250.04 121.026L249.337 121.738ZM249.337 140.308V141.308H250.337V140.308H249.337ZM219.766 140.308V139.308H218.766V140.308H219.766ZM219.766 190.714H218.766V191.714H219.766V190.714ZM252.025 190.714H253.025V189.714H252.025V190.714ZM252.025 209.285L252.728 209.996L253.025 209.703V209.285H252.025ZM250.681 210.611V211.611H251.092L251.384 211.323L250.681 210.611ZM195.572 210.611H194.572V211.611H195.572V210.611ZM4.03241 2.14889V1.14889H3.03241V2.14889H4.03241ZM60.4861 2.14889H61.4861V1.14889H60.4861V2.14889ZM60.4861 60.2778V61.2778H61.4861V60.2778H60.4861ZM4.03241 60.2778H3.03241V61.2778H4.03241V60.2778ZM28.2269 22.4264V21.4264H27.2269V22.4264H28.2269ZM28.2269 40.0003H27.2269V41.0003H28.2269V40.0003ZM36.2917 40.0003V41.0003H37.2917V40.0003H36.2917ZM36.2917 22.4264H37.2917V21.4264H36.2917V22.4264ZM263.437 1.14667V0.146667H263.021L262.727 0.442295L263.437 1.14667ZM286.059 1.14667L286.769 0.442295L286.475 0.146667H286.059V1.14667ZM287.39 2.48767H288.39V2.07571L288.1 1.7833L287.39 2.48767ZM287.39 37.3537H286.39V38.3537H287.39V37.3537ZM295.374 37.3537H296.374V36.3537H295.374V37.3537ZM295.374 57.4687V58.4687H296.374V57.4687H295.374ZM287.39 57.4687V56.4687H286.39V57.4687H287.39ZM287.39 96.3578V97.3578H288.39V96.3578H287.39ZM262.107 96.3578H261.107V97.3578H262.107V96.3578ZM262.107 2.48767L261.397 1.7833L261.107 2.07571V2.48767H262.107ZM259.082 118.407V117.407H258.082V118.407H259.082ZM283.035 118.407H284.035V117.407H283.035V118.407ZM283.035 154.614H282.035V155.614H283.035V154.614ZM292.35 154.614H293.35V153.614H292.35V154.614ZM292.35 174.729V175.729H293.35V174.729H292.35ZM283.035 174.729V173.729H282.035V174.729H283.035ZM283.035 213.618V214.618H284.035V213.618H283.035ZM259.082 213.618H258.082V214.618H259.082V213.618ZM390.498 235.667V234.667H390.091L389.799 234.952L390.498 235.667ZM413.806 235.667H414.806V234.667H413.806V235.667ZM413.806 271.874H412.806V272.874H413.806V271.874ZM423.403 271.874H424.403V270.874H423.403V271.874ZM423.403 291.989V292.989H424.403V291.989H423.403ZM413.806 291.989V290.989H412.806V291.989H413.806ZM413.806 330.878V331.878H414.806V330.878H413.806ZM389.127 330.878H388.127V331.878H389.127V330.878ZM389.127 237.008L388.428 236.293L388.127 236.587V237.008H389.127ZM68.8693 118.407V117.407H68.4519L68.1583 117.703L68.8693 118.407ZM91.4189 118.407L92.1299 117.703L91.8363 117.407H91.4189V118.407ZM92.7454 119.748H93.7454V119.337L93.4563 119.044L92.7454 119.748ZM92.7454 213.618V214.618H93.7454V213.618H92.7454ZM67.5428 213.618H66.5428V214.618H67.5428V213.618ZM67.5428 119.748L66.8319 119.044L66.5428 119.337V119.748H67.5428ZM198.893 235.667V234.667H198.47L198.176 234.969L198.893 235.667ZM218.462 235.667L219.178 234.969L218.884 234.667H218.462V235.667ZM219.766 237.008H220.766V236.602L220.483 236.31L219.766 237.008ZM219.766 330.878V331.878H220.766V330.878H219.766ZM197.588 330.878H196.588V331.878H197.588V330.878ZM197.588 237.008L196.871 236.31L196.588 236.602V237.008H197.588ZM103.834 60.2778V59.2778H102.834V60.2778H103.834ZM129.273 60.2778H130.273V59.2778H129.273V60.2778ZM129.273 77.6496H128.273V78.6496H129.273V77.6496ZM189.523 77.6496H190.523V76.6496H189.523V77.6496ZM189.523 96.3578V97.3578H190.523V96.3578H189.523ZM103.834 96.3578H102.834V97.3578H103.834V96.3578ZM252.372 3.81926V4.81926H253.372V3.81926H252.372ZM200.146 3.81926V2.81926H199.146V3.81926H200.146ZM200.146 92.0148H199.146V93.0148H200.146V92.0148ZM253.711 92.0148V93.0148H254.711V92.0148H253.711ZM253.711 74.643H254.711V73.643H253.711V74.643ZM222.911 74.643H221.911V75.643H222.911V74.643ZM7.05671 64.2867V63.2867H6.05671V64.2867H7.05671ZM31.1566 64.2867H32.1566V63.2867H31.1566V64.2867ZM31.1566 77.6496H30.1566V78.6496H31.1566V77.6496ZM92.7454 77.6496H93.7454V76.6496H92.7454V77.6496ZM92.7454 96.3578V97.3578H93.7454V96.3578H92.7454ZM7.05671 96.3578H6.05671V97.3578H7.05671V96.3578ZM4.03241 166.513V165.513H3.03241V166.513H4.03241ZM65.5266 166.513H66.5266V165.513H65.5266V166.513ZM65.5266 186.701V187.701H66.5266V186.701H65.5266ZM42.8005 186.701V185.701H41.8005V186.701H42.8005ZM42.8005 212.272L43.51 212.977L43.8005 212.684V212.272H42.8005ZM41.4637 213.618V214.618H41.8799L42.1731 214.323L41.4637 213.618ZM18.7375 213.618H17.7375V214.618H18.7375V213.618ZM18.7375 186.701H19.7375V185.701H18.7375V186.701ZM4.03241 186.701H3.03241V187.701H4.03241V186.701ZM227.831 307.827V306.827H226.831V307.827H227.831ZM318.56 307.827H319.56V306.827H318.56V307.827ZM318.56 327.871V328.871H319.56V327.871H318.56ZM227.831 327.871H226.831V328.871H227.831V327.871ZM7.05671 120.411V119.411H6.05671V120.411H7.05671ZM58.1339 120.411L59.082 120.093L58.8533 119.411H58.1339V120.411ZM59.478 124.42L60.4774 124.454L60.4835 124.273L60.4261 124.102L59.478 124.42ZM58.1339 164.509V165.509H59.1009L59.1333 164.542L58.1339 164.509ZM33.9394 164.509H32.9394V165.509H33.9394V164.509ZM33.9394 140.456H34.9394V139.456H33.9394V140.456ZM7.05671 140.456H6.05671V141.456H7.05671V140.456ZM297.054 76.3133V75.3133H296.222L296.071 76.1311L297.054 76.3133ZM318.56 76.3133L319.548 76.4682L319.729 75.3133H318.56V76.3133ZM315.872 93.4566L316.819 93.7783L316.846 93.6967L316.86 93.6115L315.872 93.4566ZM313.184 101.369V102.369H313.9L314.13 101.691L313.184 101.369ZM294.366 101.369H293.366V102.369H294.366V101.369ZM294.366 90.8192L293.383 90.637L293.366 90.7273V90.8192H294.366ZM100.352 21.2245H101.352V20.2245H100.352V21.2245ZM91.3519 21.2245H90.3519V22.2245H91.3519V21.2245ZM91.3519 0H92.3519V-1H91.3519V0ZM66.3519 0V-1H65.3519V0H66.3519ZM66.3519 65H65.3519V66H66.3519V65ZM91.3519 65V66H92.3519V65H91.3519ZM91.3519 41.1224V40.1224H90.3519V41.1224H91.3519ZM100.352 41.1224V42.1224H101.352V41.1224H100.352ZM101.352 54.0612H100.352V55.0612H101.352V54.0612ZM154.352 54.0612V55.0612H155.352V54.0612H154.352ZM154.352 34.1633H155.352V33.1633H154.352V34.1633ZM125.019 34.1633H124.019V35.1633H125.019V34.1633ZM125.019 1H126.019V0H125.019V1ZM101.352 1V0H100.352V1H101.352ZM127.542 119.393L143.489 122.075L143.82 120.103L127.874 117.421L127.542 119.393ZM143.011 121.854L150.984 128.559L152.271 127.028L144.298 120.323L143.011 121.854ZM152.338 128.498L153.667 127.157L152.246 125.749L150.917 127.09L152.338 128.498ZM152.957 127.453H163.587V125.453H152.957V127.453ZM164.587 126.453V118.407H162.587V126.453H164.587ZM163.587 119.407H186.178V117.407H163.587V119.407ZM185.468 119.111L186.797 120.452L188.217 119.044L186.888 117.703L185.468 119.111ZM186.507 119.748V172.047H188.507V119.748H186.507ZM187.507 171.047H163.587V173.047H187.507V171.047ZM164.587 172.047V166.683H162.587V172.047H164.587ZM149.741 165.853L141.767 171.217L142.884 172.876L150.857 167.512L149.741 165.853ZM142.145 171.063L127.528 173.745L127.889 175.712L142.506 173.03L142.145 171.063ZM126.708 174.729V178.752H128.708V174.729H126.708ZM127.708 179.752H163.587V177.752H127.708V179.752ZM164.587 178.752V173.388H162.587V178.752H164.587ZM163.587 174.388H186.178V172.388H163.587V174.388ZM185.468 174.092L186.797 175.433L188.217 174.025L186.888 172.684L185.468 174.092ZM186.507 174.729V213.618H188.507V174.729H186.507ZM187.507 212.618H102.46V214.618H187.507V212.618ZM103.46 213.618V174.729H101.46V213.618H103.46ZM103.17 175.433L104.499 174.092L103.078 172.684L101.749 174.025L103.17 175.433ZM103.914 174.38L114.545 173.039L114.294 171.055L103.664 172.396L103.914 174.38ZM114.978 171.217L107.005 165.853L105.888 167.512L113.861 172.876L114.978 171.217ZM107.281 166.132L101.965 158.086L100.297 159.188L105.612 167.234L107.281 166.132ZM102.102 158.396L100.773 153.032L98.8314 153.513L100.16 158.877L102.102 158.396ZM100.802 153.273V139.863H98.8021V153.273H100.802ZM100.739 140.211L104.726 129.483L102.851 128.786L98.8647 139.514L100.739 140.211ZM104.443 129.891L113.745 121.845L112.437 120.332L103.134 128.378L104.443 129.891ZM113.271 122.072L127.889 119.39L127.528 117.423L112.91 120.105L113.271 122.072ZM127.258 137.629L124.6 138.97L125.501 140.755L128.159 139.414L127.258 137.629ZM124.05 139.863V151.932H126.05V139.863H124.05ZM124.806 152.901L130.121 154.242L130.611 152.303L125.295 150.962L124.806 152.901ZM131.076 153.977L132.405 152.636L130.984 151.228L129.656 152.569L131.076 153.977ZM132.695 151.932V139.863H130.695V151.932H132.695ZM132.014 138.915L128.027 137.574L127.389 139.47L131.376 140.811L132.014 138.915ZM155.943 143.886V149.25H157.943V143.886H155.943ZM156.943 150.25H163.587V148.25H156.943V150.25ZM164.587 149.25V143.886H162.587V149.25H164.587ZM163.587 142.886H156.943V144.886H163.587V142.886ZM126.708 194.844V197.526H128.708V194.844H126.708ZM127.708 198.526H163.587V196.526H127.708V198.526ZM164.587 197.526V194.844H162.587V197.526H164.587ZM163.587 193.844H127.708V195.844H163.587V193.844ZM25.5386 238.671H44.3565V236.671H25.5386V238.671ZM43.3565 237.671V258.975H45.3565V237.671H43.3565ZM44.2164 257.985L34.8074 259.317L35.0876 261.297L44.4966 259.966L44.2164 257.985ZM34.2438 259.597L31.5555 262.26L32.963 263.68L35.6513 261.017L34.2438 259.597ZM31.2593 262.97V269.628H33.2593V262.97H31.2593ZM31.5555 270.338L34.2438 273.001L35.6513 271.58L32.963 268.917L31.5555 270.338ZM34.8816 273.289L55.0437 274.62L55.1755 272.624L35.0134 271.293L34.8816 273.289ZM56.0573 273.941L60.0898 261.957L58.1942 261.32L54.1618 273.303L56.0573 273.941ZM59.9716 262.197L62.6599 258.202L61.0006 257.086L58.3124 261.08L59.9716 262.197ZM61.8302 258.644H81.9923V256.644H61.8302V258.644ZM80.9923 257.644V273.622H82.9923V257.644H80.9923ZM81.9923 274.622H92.7454V272.622H81.9923V274.622ZM91.7454 273.622V293.595H93.7454V273.622H91.7454ZM92.7454 292.595H81.9923V294.595H92.7454V292.595ZM80.9923 293.595V330.878H82.9923V293.595H80.9923ZM81.9923 329.878H22.8503V331.878H81.9923V329.878ZM23.2187 329.948L9.77733 324.622L9.04057 326.481L22.4819 331.807L23.2187 329.948ZM10.1742 324.908L3.45351 316.919L1.92303 318.206L8.64371 326.195L10.1742 324.908ZM3.64911 317.285L0.960834 307.965L-0.960834 308.519L1.72744 317.84L3.64911 317.285ZM0.994943 308.342L2.33908 295.027L0.349192 294.826L-0.994943 308.141L0.994943 308.342ZM2.17376 295.485L7.5503 287.496L5.89105 286.379L0.514511 294.368L2.17376 295.485ZM7.08906 287.867L13.8097 285.204L13.073 283.345L6.3523 286.008L7.08906 287.867ZM14.1976 283.62L6.13276 274.299L4.62033 275.608L12.6851 284.929L14.1976 283.62ZM6.33738 274.677L3.64911 265.356L1.72744 265.91L4.41571 275.231L6.33738 274.677ZM3.6804 265.758L5.02454 255.106L3.04027 254.856L1.69614 265.508L3.6804 265.758ZM4.88775 255.499L8.92016 248.841L7.20947 247.805L3.17707 254.463L4.88775 255.499ZM8.70143 249.094L16.7662 242.437L15.493 240.895L7.4282 247.552L8.70143 249.094ZM16.5204 242.586L25.9294 238.592L25.1478 236.751L15.7388 240.745L16.5204 242.586ZM38.5891 292.675L29.1802 296.669L29.9618 298.51L39.3707 294.516L38.5891 292.675ZM28.5908 297.392L27.2466 304.049L29.2071 304.445L30.5512 297.788L28.5908 297.392ZM27.3341 304.698L30.0224 310.024L31.8079 309.123L29.1196 303.797L27.3341 304.698ZM30.5467 310.503L37.2674 313.166L38.0042 311.307L31.2835 308.644L30.5467 310.503ZM37.6358 313.236H53.7654V311.236H37.6358V313.236ZM54.7654 312.236V293.595H52.7654V312.236H54.7654ZM53.7654 292.595H38.9799V294.595H53.7654V292.595ZM147.675 236.642L159.594 239.324L160.033 237.373L148.114 234.691L147.675 236.642ZM159.184 239.126L165.806 244.49L167.065 242.936L160.443 237.572L159.184 239.126ZM165.539 244.155L168.188 249.519L169.981 248.634L167.332 243.27L165.539 244.155ZM168.084 249.077V254.441H170.084V249.077H168.084ZM169.084 255.441H173.057V253.441H169.084V255.441ZM174.057 254.441V237.008H172.057V254.441H174.057ZM173.769 237.71L175.093 236.369L173.67 234.964L172.346 236.305L173.769 237.71ZM174.382 236.667H194.247V234.667H174.382V236.667ZM193.536 236.369L194.86 237.71L196.283 236.305L194.959 234.964L193.536 236.369ZM194.572 237.008V329.537H196.572V237.008H194.572ZM194.86 328.834L193.536 330.175L194.959 331.58L196.283 330.24L194.86 328.834ZM194.247 329.878H174.382V331.878H194.247V329.878ZM175.093 330.175L173.769 328.834L172.346 330.24L173.67 331.58L175.093 330.175ZM174.057 329.537V312.104H172.057V329.537H174.057ZM173.057 311.104H169.084V313.104H173.057V311.104ZM168.103 311.91L166.779 318.615L168.741 319.003L170.065 312.298L168.103 311.91ZM166.975 318.189L161.678 324.894L163.247 326.134L168.545 319.429L166.975 318.189ZM162.108 324.579L151.513 328.602L152.223 330.472L162.818 326.449L162.108 324.579ZM151.979 328.543L140.06 327.202L139.836 329.19L151.756 330.531L151.979 328.543ZM140.508 327.367L132.562 322.003L131.443 323.661L139.389 329.025L140.508 327.367ZM132.899 322.389L128.926 314.343L127.132 315.229L131.105 323.275L132.899 322.389ZM129.029 314.786V250.418H127.029V314.786H129.029ZM128.9 250.909L134.197 241.522L132.456 240.539L127.158 249.926L128.9 250.909ZM133.846 241.885L140.467 237.862L139.429 236.153L132.807 240.176L133.846 241.885ZM140.115 237.994L148.061 236.653L147.728 234.681L139.782 236.022L140.115 237.994ZM147.183 255.079L145.859 256.42L147.282 257.825L148.606 256.484L147.183 255.079ZM145.57 257.123V308.081H147.57V257.123H145.57ZM146.57 309.081H150.543V307.081H146.57V309.081ZM151.543 308.081V257.123H149.543V308.081H151.543ZM150.995 256.231L148.346 254.89L147.443 256.674L150.092 258.015L150.995 256.231ZM168.084 274.556V291.989H170.084V274.556H168.084ZM169.084 292.989H173.057V290.989H169.084V292.989ZM174.057 291.989V274.556H172.057V291.989H174.057ZM173.057 273.556H169.084V275.556H173.057V273.556ZM231.186 238.671H253.947V236.671H231.186V238.671ZM253.245 238.383L254.583 239.705L255.989 238.282L254.65 236.96L253.245 238.383ZM254.286 238.993V249.57H256.286V238.993H254.286ZM255.286 250.57H260.642V248.57H255.286V250.57ZM261.642 249.57V237.671H259.642V249.57H261.642ZM260.642 238.671H284.742V236.671H260.642V238.671ZM284.039 238.383L285.378 239.705L286.783 238.282L285.444 236.96L284.039 238.383ZM285.08 238.993V249.57H287.08V238.993H285.08ZM286.08 250.57H291.436V248.57H286.08V250.57ZM292.436 249.57V237.671H290.436V249.57H292.436ZM291.436 238.671H315.536V236.671H291.436V238.671ZM314.536 237.671V299.809H316.536V237.671H314.536ZM315.536 298.809H231.186V300.809H315.536V298.809ZM231.889 299.097L230.55 297.775L229.145 299.198L230.483 300.52L231.889 299.097ZM230.847 298.487V238.993H228.847V298.487H230.847ZM230.55 239.705L231.889 238.383L230.483 236.96L229.145 238.282L230.55 239.705ZM254.286 269.401V279.978H256.286V269.401H254.286ZM255.286 280.978H260.642V278.978H255.286V280.978ZM261.642 279.978V269.401H259.642V279.978H261.642ZM260.642 268.401H255.286V270.401H260.642V268.401ZM285.08 269.401V279.978H287.08V269.401H285.08ZM286.08 280.978H291.436V278.978H286.08V280.978ZM292.436 279.978V269.401H290.436V279.978H292.436ZM291.436 268.401H286.08V270.401H291.436V268.401ZM251.372 2.48296V22.5274H253.372V2.48296H251.372ZM252.372 21.5274H222.911V23.5274H252.372V21.5274ZM221.911 22.5274V73.3067H223.911V22.5274H221.911ZM326.625 238.671H380.39V236.671H326.625V238.671ZM379.39 237.671V257.568H381.39V237.671H379.39ZM380.39 256.568H350.819V258.568H380.39V256.568ZM349.819 257.568V307.974H351.819V257.568H349.819ZM350.819 308.974H383.079V306.974H350.819V308.974ZM382.079 307.974V327.871H384.079V307.974H382.079ZM383.079 326.871H326.625V328.871H383.079V326.871ZM327.625 327.871V237.671H325.625V327.871H327.625ZM195.572 121.411H247.993V119.411H195.572V121.411ZM247.291 121.123L248.635 122.449L250.04 121.026L248.695 119.699L247.291 121.123ZM248.337 121.738V140.308H250.337V121.738H248.337ZM249.337 139.308H219.766V141.308H249.337V139.308ZM218.766 140.308V190.714H220.766V140.308H218.766ZM219.766 191.714H252.025V189.714H219.766V191.714ZM251.025 190.714V209.285H253.025V190.714H251.025ZM251.323 208.573L249.979 209.899L251.384 211.323L252.728 209.996L251.323 208.573ZM250.681 209.611H195.572V211.611H250.681V209.611ZM196.572 210.611V120.411H194.572V210.611H196.572ZM4.03241 3.14889H60.4861V1.14889H4.03241V3.14889ZM59.4861 2.14889V60.2778H61.4861V2.14889H59.4861ZM60.4861 59.2778H4.03241V61.2778H60.4861V59.2778ZM5.03241 60.2778V2.14889H3.03241V60.2778H5.03241ZM27.2269 22.4264V40.0003H29.2269V22.4264H27.2269ZM28.2269 41.0003H36.2917V39.0003H28.2269V41.0003ZM37.2917 40.0003V22.4264H35.2917V40.0003H37.2917ZM36.2917 21.4264H28.2269V23.4264H36.2917V21.4264ZM263.437 2.14667H286.059V0.146667H263.437V2.14667ZM285.349 1.85104L286.68 3.19204L288.1 1.7833L286.769 0.442295L285.349 1.85104ZM286.39 2.48767V37.3537H288.39V2.48767H286.39ZM287.39 38.3537H295.374V36.3537H287.39V38.3537ZM294.374 37.3537V57.4687H296.374V37.3537H294.374ZM295.374 56.4687H287.39V58.4687H295.374V56.4687ZM286.39 57.4687V96.3578H288.39V57.4687H286.39ZM287.39 95.3578H262.107V97.3578H287.39V95.3578ZM263.107 96.3578V2.48767H261.107V96.3578H263.107ZM262.816 3.19204L264.147 1.85104L262.727 0.442295L261.397 1.7833L262.816 3.19204ZM259.082 119.407H283.035V117.407H259.082V119.407ZM282.035 118.407V154.614H284.035V118.407H282.035ZM283.035 155.614H292.35V153.614H283.035V155.614ZM291.35 154.614V174.729H293.35V154.614H291.35ZM292.35 173.729H283.035V175.729H292.35V173.729ZM282.035 174.729V213.618H284.035V174.729H282.035ZM283.035 212.618H259.082V214.618H283.035V212.618ZM260.082 213.618V118.407H258.082V213.618H260.082ZM390.498 236.667H413.806V234.667H390.498V236.667ZM412.806 235.667V271.874H414.806V235.667H412.806ZM413.806 272.874H423.403V270.874H413.806V272.874ZM422.403 271.874V291.989H424.403V271.874H422.403ZM423.403 290.989H413.806V292.989H423.403V290.989ZM412.806 291.989V330.878H414.806V291.989H412.806ZM413.806 329.878H389.127V331.878H413.806V329.878ZM390.127 330.878V237.008H388.127V330.878H390.127ZM389.827 237.723L391.198 236.382L389.799 234.952L388.428 236.293L389.827 237.723ZM68.8693 119.407H91.4189V117.407H68.8693V119.407ZM90.708 119.11L92.0344 120.451L93.4563 119.044L92.1299 117.703L90.708 119.11ZM91.7454 119.748V213.618H93.7454V119.748H91.7454ZM92.7454 212.618H67.5428V214.618H92.7454V212.618ZM68.5428 213.618V119.748H66.5428V213.618H68.5428ZM68.2538 120.451L69.5802 119.11L68.1583 117.703L66.8319 119.044L68.2538 120.451ZM198.893 236.667H218.462V234.667H198.893V236.667ZM217.745 236.364L219.049 237.705L220.483 236.31L219.178 234.969L217.745 236.364ZM218.766 237.008V330.878H220.766V237.008H218.766ZM219.766 329.878H197.588V331.878H219.766V329.878ZM198.588 330.878V237.008H196.588V330.878H198.588ZM198.305 237.705L199.609 236.364L198.176 234.969L196.871 236.31L198.305 237.705ZM103.834 61.2778H129.273V59.2778H103.834V61.2778ZM128.273 60.2778V77.6496H130.273V60.2778H128.273ZM129.273 78.6496H189.523V76.6496H129.273V78.6496ZM188.523 77.6496V96.3578H190.523V77.6496H188.523ZM189.523 95.3578H103.834V97.3578H189.523V95.3578ZM104.834 96.3578V60.2778H102.834V96.3578H104.834ZM251.372 2.48296V3.81926H253.372V2.48296H251.372ZM252.372 2.81926H200.146V4.81926H252.372V2.81926ZM199.146 3.81926V92.0148H201.146V3.81926H199.146ZM200.146 93.0148H253.711V91.0148H200.146V93.0148ZM254.711 92.0148V74.643H252.711V92.0148H254.711ZM253.711 73.643H222.911V75.643H253.711V73.643ZM223.911 74.643V73.3067H221.911V74.643H223.911ZM7.05671 65.2867H31.1566V63.2867H7.05671V65.2867ZM30.1566 64.2867V77.6496H32.1566V64.2867H30.1566ZM31.1566 78.6496H92.7454V76.6496H31.1566V78.6496ZM91.7454 77.6496V96.3578H93.7454V77.6496H91.7454ZM92.7454 95.3578H7.05671V97.3578H92.7454V95.3578ZM8.05671 96.3578V64.2867H6.05671V96.3578H8.05671ZM4.03241 167.513H65.5266V165.513H4.03241V167.513ZM64.5266 166.513V186.701H66.5266V166.513H64.5266ZM65.5266 185.701H42.8005V187.701H65.5266V185.701ZM41.8005 186.701V212.272H43.8005V186.701H41.8005ZM42.091 211.567L40.7542 212.913L42.1731 214.323L43.51 212.977L42.091 211.567ZM41.4637 212.618H18.7375V214.618H41.4637V212.618ZM19.7375 213.618V186.701H17.7375V213.618H19.7375ZM18.7375 185.701H4.03241V187.701H18.7375V185.701ZM5.03241 186.701V166.513H3.03241V186.701H5.03241ZM227.831 308.827H318.56V306.827H227.831V308.827ZM317.56 307.827V327.871H319.56V307.827H317.56ZM318.56 326.871H227.831V328.871H318.56V326.871ZM228.831 327.871V307.827H226.831V327.871H228.831ZM7.05671 121.411H58.1339V119.411H7.05671V121.411ZM57.1857 120.729L58.5299 124.738L60.4261 124.102L59.082 120.093L57.1857 120.729ZM58.4786 124.386L57.1344 164.475L59.1333 164.542L60.4774 124.454L58.4786 124.386ZM58.1339 163.509H33.9394V165.509H58.1339V163.509ZM34.9394 164.509V140.456H32.9394V164.509H34.9394ZM33.9394 139.456H7.05671V141.456H33.9394V139.456ZM8.05671 140.456V120.411H6.05671V140.456H8.05671ZM297.054 77.3133H318.56V75.3133H297.054V77.3133ZM317.572 76.1584L314.884 93.3017L316.86 93.6115L319.548 76.4682L317.572 76.1584ZM314.925 93.1349L312.237 101.047L314.13 101.691L316.819 93.7783L314.925 93.1349ZM313.184 100.369H294.366V102.369H313.184V100.369ZM295.366 101.369V90.8192H293.366V101.369H295.366ZM295.349 91.0014L298.037 76.4956L296.071 76.1311L293.383 90.637L295.349 91.0014ZM100.352 20.2245H91.3519V22.2245H100.352V20.2245ZM92.3519 21.2245V0H90.3519V21.2245H92.3519ZM91.3519 -1H66.3519V1H91.3519V-1ZM65.3519 0V65H67.3519V0H65.3519ZM66.3519 66H91.3519V64H66.3519V66ZM92.3519 65V41.1224H90.3519V65H92.3519ZM91.3519 42.1224H100.352V40.1224H91.3519V42.1224ZM101.352 41.1224V21.2245H99.3519V41.1224H101.352ZM155.352 54.0612V34.1633H153.352V54.0612H155.352ZM154.352 33.1633H125.019V35.1633H154.352V33.1633ZM126.019 34.1633V1H124.019V34.1633H126.019ZM125.019 0H101.352V2H125.019V0ZM100.352 1V54.0612H102.352V1H100.352ZM163.587 165.683H150.299V167.683H163.587V165.683ZM101.352 55.0612H154.352V53.0612H101.352V55.0612Z" fill="white" mask="url(#path-1-inside-1_239_186)"/>
</svg>
